{
  "accessors": [
    {
      "bufferView": 2,
      "componentType": 5126,
      "count": 65532,
      "max": [
        36.8701057434082,
        0.9920570254325867,
        182.87640380859375
      ],
      "min": [
        -113.05045318603516,
        -161.54019165039063,
        -49.00703048706055
      ],
      "type": "VEC3"
    },
    {
      "bufferView": 2,
      "byteOffset": 786384,
      "componentType": 5126,
      "count": 65532,
      "max": [
        0.9999933242797852,
        0.9999271035194397,
        0.9999339580535889
      ],
      "min": [
        -0.9999914765357971,
        -0.9999834895133972,
        -0.9999426603317261
      ],
      "type": "VEC3"
    },
    {
      "bufferView": 1,
      "componentType": 5126,
      "count": 65532,
      "max": [
        0.9794440269470215,
        0.9789360165596008
      ],
      "min": [
        0.010532000102102757,
        0.010022999718785286
      ],
      "type": "VEC2"
    },
    {
      "bufferView": 0,
      "componentType": 5125,
      "count": 327942,
      "type": "SCALAR"
    },
    {
      "bufferView": 2,
      "byteOffset": 1572768,
      "componentType": 5126,
      "count": 65532,
      "max": [
        40.33538055419922,
        1.0763050317764282,
        181.42291259765625
      ],
      "min": [
        -112.95365905761719,
        -159.38510131835938,
        -20.701034545898438
      ],
      "type": "VEC3"
    },
    {
      "bufferView": 2,
      "byteOffset": 2359152,
      "componentType": 5126,
      "count": 65532,
      "max": [
        0.9999987483024597,
        0.9999657273292542,
        0.9998927712440491
      ],
      "min": [
        -0.9999890923500061,
        -0.9997007846832275,
        -0.9998745322227478
      ],
      "type": "VEC3"
    },
    {
      "bufferView": 1,
      "byteOffset": 524256,
      "componentType": 5126,
      "count": 65532,
      "max": [
        0.8725990056991577,
        0.9157429933547974
      ],
      "min": [
        0.07372500002384186,
        0.010989000089466572
      ],
      "type": "VEC2"
    },
    {
      "bufferView": 0,
      "byteOffset": 1311768,
      "componentType": 5125,
      "count": 350352,
      "type": "SCALAR"
    },
    {
      "bufferView": 2,
      "byteOffset": 3145536,
      "componentType": 5126,
      "count": 65532,
      "max": [
        36.4267578125,
        0.44310200214385986,
        80.41645812988281
      ],
      "min": [
        -42.627708435058594,
        -152.29788208007813,
        -41.725135803222656
      ],
      "type": "VEC3"
    },
    {
      "bufferView": 2,
      "byteOffset": 3931920,
      "componentType": 5126,
      "count": 65532,
      "max": [
        0.9999936819076538,
        0.9999646544456482,
        0.9999037384986877
      ],
      "min": [
        -0.999999463558197,
        -0.9999719858169556,
        -0.9999773502349854
      ],
      "type": "VEC3"
    },
    {
      "bufferView": 1,
      "byteOffset": 1048512,
      "componentType": 5126,
      "count": 65532,
      "max": [
        0.8760589957237244,
        0.989467978477478
      ],
      "min": [
        0.05317499861121178,
        0.09971699863672256
      ],
      "type": "VEC2"
    },
    {
      "bufferView": 0,
      "byteOffset": 2713176,
      "componentType": 5125,
      "count": 348096,
      "type": "SCALAR"
    },
    {
      "bufferView": 2,
      "byteOffset": 4718304,
      "componentType": 5126,
      "count": 65532,
      "max": [
        43.56310272216797,
        0.8023999929428101,
        165.92532348632813
      ],
      "min": [
        -66.24694061279297,
        -162.06768798828125,
        -47.92249298095703
      ],
      "type": "VEC3"
    },
    {
      "bufferView": 2,
      "byteOffset": 5504688,
      "componentType": 5126,
      "count": 65532,
      "max": [
        0.9999784827232361,
        0.9999980330467224,
        0.9999878406524658
      ],
      "min": [
        -0.9999974370002747,
        -0.9999279975891113,
        -0.9999370574951172
      ],
      "type": "VEC3"
    },
    {
      "bufferView": 1,
      "byteOffset": 1572768,
      "componentType": 5126,
      "count": 65532,
      "max": [
        0.9406160116195679,
        0.989467978477478
      ],
      "min": [
        0.010532000102102757,
        0.4444099962711334
      ],
      "type": "VEC2"
    },
    {
      "bufferView": 0,
      "byteOffset": 4105560,
      "componentType": 5125,
      "count": 343860,
      "type": "SCALAR"
    },
    {
      "bufferView": 2,
      "byteOffset": 6291072,
      "componentType": 5126,
      "count": 24429,
      "max": [
        0.8393620252609253,
        -5.153326034545898,
        73.38311767578125
      ],
      "min": [
        -41.22214889526367,
        -158.8565216064453,
        -19.90193748474121
      ],
      "type": "VEC3"
    },
    {
      "bufferView": 2,
      "byteOffset": 6584220,
      "componentType": 5126,
      "count": 24429,
      "max": [
        0.9893277883529663,
        0.9999212622642517,
        0.9999037384986877
      ],
      "min": [
        -0.9999943375587463,
        -0.9998682141304016,
        -0.9999963641166687
      ],
      "type": "VEC3"
    },
    {
      "bufferView": 1,
      "byteOffset": 2097024,
      "componentType": 5126,
      "count": 24429,
      "max": [
        0.9266049861907959,
        0.7682920098304749
      ],
      "min": [
        0.042128998786211014,
        0.19583800435066223
      ],
      "type": "VEC2"
    },
    {
      "bufferView": 0,
      "byteOffset": 5481000,
      "componentType": 5125,
      "count": 129750,
      "type": "SCALAR"
    }
  ],
  "asset": {
    "extras": {
      "author": "Laser Design (https://sketchfab.com/Laserdesign)",
      "license": "CC-BY-4.0 (http://creativecommons.org/licenses/by/4.0/)",
      "source": "https://sketchfab.com/3d-models/godzilla-2019-figurine-3d-scan-d2f8c8616297405d8a8026e5dbfbbe45",
      "title": "Godzilla 2019 Figurine 3D Scan"
    },
    "generator": "Sketchfab-12.66.0",
    "version": "2.0"
  },
  "bufferViews": [
    {
      "buffer": 0,
      "byteLength": 6000000,
      "name": "floatBufferViews",
      "target": 34963
    },
    {
      "buffer": 0,
      "byteLength": 2292456,
      "byteOffset": 6000000,
      "byteStride": 8,
      "name": "floatBufferViews",
      "target": 34962
    },
    {
      "buffer": 0,
      "byteLength": 6877368,
      "byteOffset": 8292456,
      "byteStride": 12,
      "name": "floatBufferViews",
      "target": 34962
    }
  ],
  "buffers": [
    {
      "byteLength": 15169824,
      "uri": "scene.bin"
    }
  ],
  "images": [
    {
      "uri": "textures/material_0_baseColor.jpeg"
    }
  ],
  "materials": [
    {
      "doubleSided": true,
      "name": "material_0",
      "pbrMetallicRoughness": {
        "baseColorTexture": {
          "index": 0
        },
        "metallicFactor": 0.8772549842,
        "roughnessFactor": 0.682689443
      }
    }
  ],
  "meshes": [
    {
      "name": "Object_0",
      "primitives": [
        {
          "attributes": {
            "NORMAL": 1,
            "POSITION": 0,
            "TEXCOORD_0": 2
          },
          "indices": 3,
          "material": 0,
          "mode": 4
        }
      ]
    },
    {
      "name": "Object_1",
      "primitives": [
        {
          "attributes": {
            "NORMAL": 5,
            "POSITION": 4,
            "TEXCOORD_0": 6
          },
          "indices": 7,
          "material": 0,
          "mode": 4
        }
      ]
    },
    {
      "name": "Object_2",
      "primitives": [
        {
          "attributes": {
            "NORMAL": 9,
            "POSITION": 8,
            "TEXCOORD_0": 10
          },
          "indices": 11,
          "material": 0,
          "mode": 4
        }
      ]
    },
    {
      "name": "Object_3",
      "primitives": [
        {
          "attributes": {
            "NORMAL": 13,
            "POSITION": 12,
            "TEXCOORD_0": 14
          },
          "indices": 15,
          "material": 0,
          "mode": 4
        }
      ]
    },
    {
      "name": "Object_4",
      "primitives": [
        {
          "attributes": {
            "NORMAL": 17,
            "POSITION": 16,
            "TEXCOORD_0": 18
          },
          "indices": 19,
          "material": 0,
          "mode": 4
        }
      ]
    }
  ],
  "nodes": [
    {
      "children": [
        1
      ],
      "matrix": [
        1.0,
        0.0,
        0.0,
        0.0,
        0.0,
        -1.0,
        -2.220446049250313e-16,
        0.0,
        0.0,
        2.220446049250313e-16,
        -1.0,
        0.0,
        0.0,
        -13.56140708923343,
        147.43063354492188,
        1.0
      ],
      "name": "Sketchfab_model"
    },
    {
      "children": [
        2,
        3,
        4,
        5,
        6
      ],
      "name": "Godzilla 2019 Color V2 mm.obj.cleaner.materialmerger.gles"
    },
    {
      "mesh": 0,
      "name": "Object_2"
    },
    {
      "mesh": 1,
      "name": "Object_3"
    },
    {
      "mesh": 2,
      "name": "Object_4"
    },
    {
      "mesh": 3,
      "name": "Object_5"
    },
    {
      "mesh": 4,
      "name": "Object_6"
    }
  ],
  "samplers": [
    {
      "magFilter": 9729,
      "minFilter": 9987,
      "wrapS": 10497,
      "wrapT": 10497
    }
  ],
  "scene": 0,
  "scenes": [
    {
      "name": "Sketchfab_Scene",
      "nodes": [
        0
      ]
    }
  ],
  "textures": [
    {
      "sampler": 0,
      "source": 0
    }
  ]
}
