{
  "accessors": [
    {
      "bufferView": 2,
      "componentType": 5126,
      "count": 65532,
      "max": [
        1.5679409503936768,
        0.8935890197753906,
        2.1462318897247314
      ],
      "min": [
        -0.730571985244751,
        -1.4925930500030518,
        -0.012404000386595726
      ],
      "type": "VEC3"
    },
    {
      "bufferView": 2,
      "byteOffset": 786384,
      "componentType": 5126,
      "count": 65532,
      "max": [
        0.9998922348022461,
        0.9999899864196777,
        0.9998884201049805
      ],
      "min": [
        -0.9998906850814819,
        -0.9999841451644897,
        -0.9999825954437256
      ],
      "type": "VEC3"
    },
    {
      "bufferView": 1,
      "componentType": 5126,
      "count": 65532,
      "max": [
        0.9999899864196777,
        0.941091001033783
      ],
      "min": [
        9.999999974752427e-07,
        1.2999999853491317e-05
      ],
      "type": "VEC2"
    },
    {
      "bufferView": 0,
      "componentType": 5125,
      "count": 332445,
      "type": "SCALAR"
    },
    {
      "bufferView": 2,
      "byteOffset": 1572768,
      "componentType": 5126,
      "count": 6780,
      "max": [
        1.5748989582061768,
        0.8035640120506287,
        2.112014055252075
      ],
      "min": [
        -0.636277973651886,
        -0.6901490092277527,
        0.11644600331783295
      ],
      "type": "VEC3"
    },
    {
      "bufferView": 2,
      "byteOffset": 1654128,
      "componentType": 5126,
      "count": 6780,
      "max": [
        0.9999954700469971,
        0.9998347163200378,
        0.9993306398391724
      ],
      "min": [
        -0.9999905824661255,
        -0.9996557831764221,
        -0.9999327659606934
      ],
      "type": "VEC3"
    },
    {
      "bufferView": 1,
      "byteOffset": 524256,
      "componentType": 5126,
      "count": 6780,
      "max": [
        0.9627289772033691,
        0.47056999802589417
      ],
      "min": [
        8.800000068731606e-05,
        0.35295501351356506
      ],
      "type": "VEC2"
    },
    {
      "bufferView": 0,
      "byteOffset": 1329780,
      "componentType": 5125,
      "count": 34215,
      "type": "SCALAR"
    },
    {
      "bufferView": 2,
      "byteOffset": 1735488,
      "componentType": 5126,
      "count": 2180,
      "max": [
        0.6274449825286865,
        0.27067500352859497,
        0.1565210074186325
      ],
      "min": [
        0.3861750066280365,
        -0.7846320271492004,
        0.008262000046670437
      ],
      "type": "VEC3"
    },
    {
      "bufferView": 2,
      "byteOffset": 1761648,
      "componentType": 5126,
      "count": 2180,
      "max": [
        0.997138261795044,
        0.9998747110366821,
        0.9989041686058044
      ],
      "min": [
        -0.999610960483551,
        -0.999880313873291,
        -0.9998606443405151
      ],
      "type": "VEC3"
    },
    {
      "bufferView": 1,
      "byteOffset": 578496,
      "componentType": 5126,
      "count": 2180,
      "max": [
        0.9202470183372498,
        0.9998409748077393
      ],
      "min": [
        6.000000212225132e-06,
        9.999999974752427e-07
      ],
      "type": "VEC2"
    },
    {
      "bufferView": 0,
      "byteOffset": 1466640,
      "componentType": 5125,
      "count": 10824,
      "type": "SCALAR"
    }
  ],
  "asset": {
    "extras": {
      "author": "art_r (https://sketchfab.com/art_r)",
      "license": "CC-BY-4.0 (http://creativecommons.org/licenses/by/4.0/)",
      "source": "https://sketchfab.com/3d-models/headless-hunk-monster-one-sculpt-per-day-2-23c5fe5c6a304e8c9c5fd8d80bc8957a",
      "title": "Headless Hunk Monster - One Sculpt Per Day - 2"
    },
    "generator": "Sketchfab-12.65.0",
    "version": "2.0"
  },
  "bufferViews": [
    {
      "buffer": 0,
      "byteLength": 1509936,
      "name": "floatBufferViews",
      "target": 34963
    },
    {
      "buffer": 0,
      "byteLength": 595936,
      "byteOffset": 1509936,
      "byteStride": 8,
      "name": "floatBufferViews",
      "target": 34962
    },
    {
      "buffer": 0,
      "byteLength": 1787808,
      "byteOffset": 2105872,
      "byteStride": 12,
      "name": "floatBufferViews",
      "target": 34962
    }
  ],
  "buffers": [
    {
      "byteLength": 3893680,
      "uri": "scene.bin"
    }
  ],
  "images": [
    {
      "uri": "textures/Layer_2_mtl_baseColor.png"
    },
    {
      "uri": "textures/Layer_3_mtl_baseColor.png"
    }
  ],
  "materials": [
    {
      "doubleSided": true,
      "name": "Layer_2_mtl",
      "pbrMetallicRoughness": {
        "baseColorTexture": {
          "index": 0
        },
        "metallicFactor": 0.0
      }
    },
    {
      "doubleSided": true,
      "name": "Layer_3_mtl",
      "pbrMetallicRoughness": {
        "baseColorTexture": {
          "index": 1
        },
        "metallicFactor": 0.6612569038111605
      }
    }
  ],
  "meshes": [
    {
      "name": "Object_0",
      "primitives": [
        {
          "attributes": {
            "NORMAL": 1,
            "POSITION": 0,
            "TEXCOORD_0": 2
          },
          "indices": 3,
          "material": 0,
          "mode": 4
        }
      ]
    },
    {
      "name": "Object_1",
      "primitives": [
        {
          "attributes": {
            "NORMAL": 5,
            "POSITION": 4,
            "TEXCOORD_0": 6
          },
          "indices": 7,
          "material": 0,
          "mode": 4
        }
      ]
    },
    {
      "name": "Object_2",
      "primitives": [
        {
          "attributes": {
            "NORMAL": 9,
            "POSITION": 8,
            "TEXCOORD_0": 10
          },
          "indices": 11,
          "material": 1,
          "mode": 4
        }
      ]
    }
  ],
  "nodes": [
    {
      "children": [
        1
      ],
      "matrix": [
        1.0,
        0.0,
        0.0,
        0.0,
        0.0,
        2.220446049250313e-16,
        -1.0,
        0.0,
        0.0,
        1.0,
        2.220446049250313e-16,
        0.0,
        0.0,
        0.0,
        0.0,
        1.0
      ],
      "name": "Sketchfab_model"
    },
    {
      "children": [
        2,
        3,
        4
      ],
      "name": "HeadlessHunkModel.obj.cleaner.materialmerger.gles"
    },
    {
      "mesh": 0,
      "name": "Object_2"
    },
    {
      "mesh": 1,
      "name": "Object_3"
    },
    {
      "mesh": 2,
      "name": "Object_4"
    }
  ],
  "samplers": [
    {
      "magFilter": 9729,
      "minFilter": 9987,
      "wrapS": 10497,
      "wrapT": 10497
    }
  ],
  "scene": 0,
  "scenes": [
    {
      "name": "Sketchfab_Scene",
      "nodes": [
        0
      ]
    }
  ],
  "textures": [
    {
      "sampler": 0,
      "source": 0
    },
    {
      "sampler": 0,
      "source": 1
    }
  ]
}
